<svg preserveAspectRatio="none" width="100%" height="100%" overflow="visible" style="display: block;" viewBox="0 0 24 24" fill="none" xmlns="http://www.w3.org/2000/svg">
<g id="Frame 2147225048">
<g id="Star 8">
<path d="M9.49557 1.14141C9.70501 0.57543 10.5055 0.575429 10.715 1.14141L11.7972 4.06621C12.4557 5.84564 13.8586 7.2486 15.6381 7.90705L18.5629 8.98932C19.1288 9.19876 19.1288 9.99927 18.5629 10.2087L15.6381 11.291C13.8586 11.9494 12.4557 13.3524 11.7972 15.1318L10.715 18.0566C10.5055 18.6226 9.70501 18.6226 9.49557 18.0566L8.4133 15.1318C7.75485 13.3524 6.35189 11.9494 4.57246 11.291L1.64766 10.2087C1.08168 9.99927 1.08168 9.19876 1.64766 8.98932L4.57246 7.90705C6.35188 7.2486 7.75485 5.84564 8.4133 4.06621L9.49557 1.14141Z" fill="var(--fill-0, white)"/>
<path d="M9.49557 1.14141C9.70501 0.57543 10.5055 0.575429 10.715 1.14141L11.7972 4.06621C12.4557 5.84564 13.8586 7.2486 15.6381 7.90705L18.5629 8.98932C19.1288 9.19876 19.1288 9.99927 18.5629 10.2087L15.6381 11.291C13.8586 11.9494 12.4557 13.3524 11.7972 15.1318L10.715 18.0566C10.5055 18.6226 9.70501 18.6226 9.49557 18.0566L8.4133 15.1318C7.75485 13.3524 6.35189 11.9494 4.57246 11.291L1.64766 10.2087C1.08168 9.99927 1.08168 9.19876 1.64766 8.98932L4.57246 7.90705C6.35188 7.2486 7.75485 5.84564 8.4133 4.06621L9.49557 1.14141Z" fill="url(#paint0_linear_0_1932)"/>
</g>
<g id="Star 9">
<path d="M18.6415 13.7707C18.7463 13.4877 19.1465 13.4877 19.2512 13.7707L19.7924 15.2331C20.1216 16.1228 20.8231 16.8243 21.7128 17.1535L23.1752 17.6947C23.4582 17.7994 23.4582 18.1996 23.1752 18.3044L21.7128 18.8455C20.8231 19.1747 20.1216 19.8762 19.7924 20.7659L19.2512 22.2283C19.1465 22.5113 18.7463 22.5113 18.6415 22.2283L18.1004 20.7659C17.7712 19.8762 17.0697 19.1747 16.18 18.8455L14.7176 18.3044C14.4346 18.1996 14.4346 17.7994 14.7176 17.6947L16.18 17.1535C17.0697 16.8243 17.7712 16.1228 18.1004 15.2331L18.6415 13.7707Z" fill="var(--fill-0, white)"/>
<path d="M18.6415 13.7707C18.7463 13.4877 19.1465 13.4877 19.2512 13.7707L19.7924 15.2331C20.1216 16.1228 20.8231 16.8243 21.7128 17.1535L23.1752 17.6947C23.4582 17.7994 23.4582 18.1996 23.1752 18.3044L21.7128 18.8455C20.8231 19.1747 20.1216 19.8762 19.7924 20.7659L19.2512 22.2283C19.1465 22.5113 18.7463 22.5113 18.6415 22.2283L18.1004 20.7659C17.7712 19.8762 17.0697 19.1747 16.18 18.8455L14.7176 18.3044C14.4346 18.1996 14.4346 17.7994 14.7176 17.6947L16.18 17.1535C17.0697 16.8243 17.7712 16.1228 18.1004 15.2331L18.6415 13.7707Z" fill="url(#paint1_linear_0_1932)"/>
</g>
</g>
<defs>
<linearGradient id="paint0_linear_0_1932" x1="17.9342" y1="15.4148" x2="6.76648" y2="5.6503" gradientUnits="userSpaceOnUse">
<stop offset="0.240509" stop-color="#45EFFF"/>
<stop offset="0.703716" stop-color="#17F5BD"/>
</linearGradient>
<linearGradient id="paint1_linear_0_1932" x1="22.8609" y1="20.9074" x2="17.277" y2="16.0252" gradientUnits="userSpaceOnUse">
<stop offset="0.240509" stop-color="#45EFFF"/>
<stop offset="0.703716" stop-color="#17F5BD"/>
</linearGradient>
</defs>
</svg>
