<svg width="16" height="16" viewBox="0 0 16 16" fill="none" xmlns="http://www.w3.org/2000/svg">
  <path d="M8 10.6667C9.47276 10.6667 10.6667 9.47276 10.6667 8V4.66667C10.6667 3.19391 9.47276 2 8 2C6.52724 2 5.33333 3.19391 5.33333 4.66667V8C5.33333 9.47276 6.52724 10.6667 8 10.6667Z" fill="#222222"/>
  <path d="M3.33333 7.33333C3.33333 9.91066 5.42267 12 8 12C10.5773 12 12.6667 9.91066 12.6667 7.33333H11.3333C11.3333 9.17428 9.84095 10.6667 8 10.6667C6.15905 10.6667 4.66667 9.17428 4.66667 7.33333H3.33333Z" fill="#222222"/>
  <path d="M7.33333 12H8.66667V14H7.33333V12Z" fill="#222222"/>
  <path d="M5.33333 14H10.6667V15.3333H5.33333V14Z" fill="#222222"/>
</svg>
