<svg preserveAspectRatio="none" width="100%" height="100%" overflow="visible" style="display: block;" viewBox="0 0 10 20" fill="none" xmlns="http://www.w3.org/2000/svg">
<g id="Frame 2147225049">
<path id="Star 8" d="M3.78956 4.92621C3.93417 4.53542 4.48689 4.53542 4.63149 4.92621C5.08612 6.15482 6.0548 7.1235 7.28342 7.57813C7.6742 7.72274 7.6742 8.27546 7.28342 8.42006C6.0548 8.87469 5.08612 9.84337 4.63149 11.072C4.48689 11.4628 3.93417 11.4628 3.78956 11.072C3.33494 9.84337 2.36625 8.87469 1.13764 8.42006C0.746851 8.27546 0.746851 7.72274 1.13764 7.57813C2.36625 7.12351 3.33494 6.15482 3.78956 4.92621Z" fill="var(--fill-0, white)"/>
<path id="Star 9" d="M7.68386 13.4631C7.75617 13.2677 8.03253 13.2677 8.10483 13.4631C8.33214 14.0774 8.81648 14.5617 9.43079 14.789C9.62618 14.8613 9.62618 15.1377 9.43079 15.21C8.81648 15.4373 8.33214 15.9216 8.10483 16.536C8.03253 16.7313 7.75617 16.7313 7.68386 16.536C7.45655 15.9216 6.97221 15.4373 6.3579 15.21C6.16251 15.1377 6.16251 14.8613 6.3579 14.789C6.97221 14.5617 7.45655 14.0774 7.68386 13.4631Z" fill="var(--fill-0, white)"/>
</g>
</svg>
