<svg preserveAspectRatio="none" width="100%" height="100%" overflow="visible" style="display: block;" viewBox="0 0 20 20" fill="none" xmlns="http://www.w3.org/2000/svg">
<g id="Frame 2147225048">
<g id="Star 8">
<path d="M7.91298 0.951093C8.08751 0.479442 8.7546 0.479443 8.92913 0.951094L9.83102 3.38843C10.3797 4.87128 11.5489 6.04042 13.0317 6.58913L15.4691 7.49102C15.9407 7.66555 15.9407 8.33264 15.4691 8.50717L13.0317 9.40907C11.5489 9.95777 10.3797 11.1269 9.83102 12.6098L8.92913 15.0471C8.7546 15.5188 8.0875 15.5187 7.91298 15.0471L7.01108 12.6098C6.46238 11.1269 5.29324 9.95777 3.81038 9.40907L1.37305 8.50717C0.901398 8.33264 0.901399 7.66555 1.37305 7.49102L3.81038 6.58913C5.29324 6.04042 6.46238 4.87128 7.01108 3.38843L7.91298 0.951093Z" fill="var(--fill-0, white)"/>
<path d="M7.91298 0.951093C8.08751 0.479442 8.7546 0.479443 8.92913 0.951094L9.83102 3.38843C10.3797 4.87128 11.5489 6.04042 13.0317 6.58913L15.4691 7.49102C15.9407 7.66555 15.9407 8.33264 15.4691 8.50717L13.0317 9.40907C11.5489 9.95777 10.3797 11.1269 9.83102 12.6098L8.92913 15.0471C8.7546 15.5188 8.0875 15.5187 7.91298 15.0471L7.01108 12.6098C6.46238 11.1269 5.29324 9.95777 3.81038 9.40907L1.37305 8.50717C0.901398 8.33264 0.901399 7.66555 1.37305 7.49102L3.81038 6.58913C5.29324 6.04042 6.46238 4.87128 7.01108 3.38843L7.91298 0.951093Z" fill="url(#paint0_linear_0_1574)"/>
</g>
<g id="Star 9">
<path d="M15.5347 11.4755C15.6219 11.2397 15.9555 11.2397 16.0427 11.4755L16.4937 12.6942C16.768 13.4356 17.3526 14.0202 18.094 14.2945L19.3127 14.7455C19.5485 14.8327 19.5485 15.1663 19.3127 15.2535L18.094 15.7045C17.3526 15.9788 16.768 16.5634 16.4937 17.3048L16.0427 18.5235C15.9555 18.7593 15.6219 18.7593 15.5347 18.5235L15.0837 17.3048C14.8094 16.5634 14.2248 15.9788 13.4834 15.7045L12.2647 15.2535C12.0289 15.1663 12.0289 14.8327 12.2647 14.7455L13.4834 14.2945C14.2248 14.0202 14.8094 13.4356 15.0837 12.6942L15.5347 11.4755Z" fill="var(--fill-0, white)"/>
<path d="M15.5347 11.4755C15.6219 11.2397 15.9555 11.2397 16.0427 11.4755L16.4937 12.6942C16.768 13.4356 17.3526 14.0202 18.094 14.2945L19.3127 14.7455C19.5485 14.8327 19.5485 15.1663 19.3127 15.2535L18.094 15.7045C17.3526 15.9788 16.768 16.5634 16.4937 17.3048L16.0427 18.5235C15.9555 18.7593 15.6219 18.7593 15.5347 18.5235L15.0837 17.3048C14.8094 16.5634 14.2248 15.9788 13.4834 15.7045L12.2647 15.2535C12.0289 15.1663 12.0289 14.8327 12.2647 14.7455L13.4834 14.2945C14.2248 14.0202 14.8094 13.4356 15.0837 12.6942L15.5347 11.4755Z" fill="url(#paint1_linear_0_1574)"/>
</g>
</g>
<defs>
<linearGradient id="paint0_linear_0_1574" x1="14.9452" y1="12.8456" x2="5.63874" y2="4.7085" gradientUnits="userSpaceOnUse">
<stop offset="0.240509" stop-color="#45EFFF"/>
<stop offset="0.703716" stop-color="#17F5BD"/>
</linearGradient>
<linearGradient id="paint1_linear_0_1574" x1="19.0508" y1="17.4228" x2="14.3975" y2="13.3542" gradientUnits="userSpaceOnUse">
<stop offset="0.240509" stop-color="#45EFFF"/>
<stop offset="0.703716" stop-color="#17F5BD"/>
</linearGradient>
</defs>
</svg>
